<svg width="130" height="34" viewBox="0 0 130 34" fill="none" xmlns="http://www.w3.org/2000/svg">
<path fill-rule="evenodd" clip-rule="evenodd" d="M23.7186 4.69092H34.0902C34.7118 4.69092 35.3063 5.15433 35.2198 5.70396L34.2956 11.6313H34.2902V11.6367C34.2902 11.6421 34.2902 11.6529 34.2902 11.6583L34.2794 11.7122C34.2362 11.8792 34.074 12.0031 33.874 12.0031H23.9077C23.6969 12.0031 23.5186 11.863 23.497 11.6744L22.589 5.70396C22.5079 5.15433 23.097 4.69092 23.7186 4.69092ZM21.4648 16.1846C23.6645 17.6934 26.248 18.4909 28.9125 18.4909C31.5067 18.4909 34.047 17.7581 36.1926 16.3032C37.5222 15.4033 38.1708 16.966 37.2844 17.5318C34.755 19.1375 31.9283 20.1236 28.9125 20.1236C25.8967 20.1236 23.1078 19.0944 20.5568 17.5425C20.3082 17.3863 20.1406 17.1276 20.1406 16.8259C20.1406 16.1092 20.8216 15.7428 21.4648 16.1846ZM27.9613 22.9957C28.4261 22.7856 29.4259 22.7748 29.8907 22.9849C30.2204 21.8641 31.2581 21.0828 32.4472 21.0828C33.9172 21.0828 35.1117 22.2737 35.1117 23.7393C35.1117 25.205 33.9172 26.3959 32.4472 26.3959C30.9771 26.3959 29.7826 25.205 29.7826 23.7393C29.7826 23.7178 29.7826 23.6908 29.7826 23.6693C29.4854 23.3999 28.372 23.4268 28.0639 23.6801C28.0639 23.7016 28.0639 23.7178 28.0639 23.7393C28.0639 25.205 26.8695 26.3959 25.3994 26.3959C23.9293 26.3959 22.7349 25.205 22.7349 23.7393C22.7349 22.2737 23.9293 21.0828 25.3994 21.0828C26.5938 21.0774 27.637 21.8695 27.9613 22.9957ZM32.4418 21.6971C31.3176 21.6971 30.4042 22.6078 30.4042 23.7286C30.4042 24.8494 31.3176 25.76 32.4418 25.76C33.566 25.76 34.4794 24.8494 34.4794 23.7286C34.4848 22.6078 33.5714 21.6971 32.4418 21.6971ZM25.4048 21.6971C24.2806 21.6971 23.3672 22.6078 23.3672 23.7286C23.3672 24.8494 24.2806 25.76 25.4048 25.76C26.529 25.76 27.4424 24.8494 27.4424 23.7286C27.4424 22.6078 26.529 21.6971 25.4048 21.6971ZM21.6756 28.7614C21.8053 29.6074 22.1458 30.2972 22.7781 30.7983C24.5617 32.2047 27.3776 31.7413 28.9287 30.1463C30.4744 31.7305 33.2903 32.1939 35.0685 30.7875C35.7062 30.2864 36.0413 29.5967 36.171 28.7507C35.1225 29.5428 34.274 29.9793 32.7498 29.3703C31.1717 28.7399 30.442 26.4336 28.9233 28.4112C27.4532 26.4282 26.6641 28.7561 25.1021 29.3811C23.5726 29.9846 22.7187 29.5536 21.6756 28.7614ZM34.0254 13.3557L34.02 13.3718C34.0146 13.4042 34.0037 13.4365 33.9875 13.4688L34.0037 13.4742L33.6146 15.9906C33.4254 17.2031 29.7988 17.521 28.7774 17.521C27.7991 17.521 24.3293 17.1707 24.1509 15.9906L23.751 13.3395C23.751 13.3287 23.751 13.3179 23.751 13.3126C23.751 13.1078 23.9347 12.9407 24.1671 12.9407H33.6146C33.8416 12.9407 34.0308 13.1078 34.0308 13.3126C34.0308 13.3287 34.0308 13.3449 34.0254 13.3557Z" fill="#8EA652"/>
<path fill-rule="evenodd" clip-rule="evenodd" d="M94.0131 10.4084L94.0346 8.3823H96.4941L96.4671 10.4084H94.0131ZM94.0346 21.5249L94.0131 11.54H96.4671L96.4941 21.5249H94.0346ZM71.373 10.4084L71.3945 8.3823H73.8535L73.8265 10.4084H71.373ZM66.9896 19.224C67.2706 18.96 67.5137 18.5612 67.6542 18.0978C67.7947 17.6344 67.8652 17.1063 67.8652 16.5082C67.8652 15.9155 67.8002 15.3874 67.6597 14.9347C67.5192 14.4767 67.3192 14.0618 67.0166 13.7654C66.6815 13.4637 66.2764 13.2912 65.8763 13.2912C64.444 13.2912 64.1735 14.606 64.1735 15.2419V17.462C64.1735 19.6281 65.5413 19.682 65.8223 19.682C66.2329 19.6713 66.7085 19.488 66.9896 19.224ZM84.5872 19.7359C84.7547 19.6713 84.9222 19.5743 85.0738 19.4396C85.2303 19.3102 85.3548 19.127 85.4574 18.9115C85.5549 18.6905 85.6089 18.4265 85.6144 18.1086V16.7722C85.2848 16.7668 84.9657 16.7938 84.6577 16.8477C84.3496 16.8962 84.0631 16.9878 83.8145 17.1171C83.5605 17.2518 83.3604 17.435 83.2144 17.6613C83.0633 17.8984 82.9874 18.0978 82.9823 18.4588C82.9874 18.7714 83.0418 19.03 83.1444 19.2294C83.2414 19.4288 83.3874 19.5743 83.555 19.6713C83.7225 19.7683 83.9115 19.8167 84.1116 19.8114C84.2631 19.8275 84.4196 19.7952 84.5872 19.7359ZM85.7279 20.6466L85.6954 20.6735C85.4413 21.0723 84.7442 21.7081 83.3929 21.7081C82.8578 21.7027 82.4037 21.5626 82.0146 21.2986C81.6311 21.0292 81.3335 20.6681 81.1229 20.2209C80.9174 19.7682 80.8094 19.2725 80.8094 18.7283C80.8094 18.0924 80.9284 17.532 81.1555 17.0686C81.388 16.5944 81.7066 16.2064 82.1337 15.8993C82.5497 15.5868 83.0469 15.3551 83.62 15.2096C84.1926 15.0587 84.8252 14.9832 85.5063 14.9832C85.5114 14.6545 85.4683 14.3582 85.3873 14.0941C85.3008 13.8409 85.1443 13.6307 84.9172 13.4798C84.6957 13.329 84.3711 13.2481 83.9605 13.2481C83.5605 13.2481 83.1824 13.3128 82.8198 13.4367C82.4527 13.5607 82.1282 13.7223 81.8471 13.9217L81.415 12.2028C81.604 12.0734 81.8471 11.9441 82.1391 11.8094C82.4362 11.6855 82.7713 11.5777 83.1499 11.4915C83.5334 11.4053 83.944 11.3675 84.3926 11.3622C85.0628 11.3675 85.6089 11.4807 86.052 11.7016C86.4951 11.9226 86.8411 12.2297 87.0952 12.6177C87.3492 13.0057 87.5328 13.4475 87.6408 13.9379C87.7493 14.4336 87.7978 14.9563 87.7978 15.5059V19.0085C87.7978 19.4503 88.0409 19.9191 88.6785 19.9568V21.8051C87.3007 22.15 86.3005 21.7889 85.7279 20.6466ZM56.726 19.7359C56.8935 19.6713 57.0611 19.5743 57.2126 19.4396C57.3691 19.3102 57.4936 19.127 57.5962 18.9115C57.6937 18.6905 57.7477 18.4265 57.7527 18.1086V16.7722C57.4231 16.7668 57.1045 16.7938 56.7965 16.8477C56.4884 16.8962 56.2019 16.9878 55.9533 17.1171C55.6993 17.2518 55.4992 17.435 55.3532 17.6613C55.2017 17.8984 55.1262 18.0978 55.1207 18.4588C55.1262 18.7714 55.1802 19.03 55.2832 19.2294C55.3802 19.4288 55.5262 19.5743 55.6938 19.6713C55.8613 19.7683 56.0503 19.8167 56.2504 19.8114C56.4019 19.8275 56.5584 19.7952 56.726 19.7359ZM71.3945 21.5249L71.373 11.54H73.8265L73.8535 21.5249H71.3945ZM99.3262 21.6327C98.9961 21.5734 98.6936 21.498 98.407 21.3956C98.1264 21.2932 97.8774 21.18 97.6613 21.0453L97.9584 19.1001C98.1314 19.2078 98.8071 19.5365 99.4827 19.6766C99.7528 19.7467 100.029 19.779 100.288 19.7844C100.726 19.779 101.05 19.6874 101.256 19.5096C101.466 19.3264 101.569 19.0839 101.558 18.7714C101.553 18.572 101.51 18.3888 101.418 18.2325C101.331 18.0816 101.191 17.9362 100.985 17.7961C100.79 17.6613 100.515 17.5105 100.169 17.3596C99.5802 17.1009 99.1046 16.8153 98.7425 16.5082C98.3855 16.1903 98.1209 15.8616 97.9534 15.5113C97.7858 15.1611 97.6938 14.8 97.6883 14.4282C97.6723 13.8193 97.8019 13.2805 98.0669 12.8009C98.3315 12.3267 98.7206 11.9495 99.2232 11.6693C99.7313 11.3945 100.331 11.2544 101.029 11.249C101.51 11.2544 101.953 11.3083 102.358 11.416C102.758 11.5238 103.098 11.6531 103.374 11.8148L103.19 13.7385C102.979 13.6146 102.488 13.4529 102.174 13.3451C101.866 13.232 101.531 13.1781 101.175 13.1673C100.796 13.1727 100.509 13.2697 100.32 13.4421C100.131 13.6199 100.034 13.8463 100.045 14.1265C100.045 14.3097 100.093 14.4713 100.191 14.6114C100.283 14.7569 100.439 14.8916 100.65 15.021C100.866 15.1557 101.153 15.3012 101.515 15.4628C102.315 15.8131 102.915 16.2388 103.304 16.7399C103.699 17.2464 103.909 17.8445 103.926 18.5343C103.942 19.1755 103.812 19.7359 103.537 20.2101C103.26 20.6843 102.85 21.0561 102.309 21.3201C101.769 21.5788 101.104 21.7135 100.326 21.7243C99.9853 21.7081 99.6448 21.6866 99.3262 21.6327ZM48.5378 21.7189C47.6191 21.7135 46.8084 21.5411 46.1003 21.2016C45.3924 20.8621 44.7978 20.3772 44.3114 19.7467C43.8304 19.1216 43.4629 18.3726 43.2143 17.5105C42.9602 16.6429 42.8359 15.6838 42.8359 14.6276C42.8413 13.3882 43.0035 12.2998 43.3169 11.3729C43.6304 10.4407 44.0628 9.65938 44.6141 9.0397C45.1654 8.41463 45.7977 7.94583 46.5164 7.6333C47.2355 7.32076 48.0082 7.1645 48.8244 7.1645C49.262 7.1645 49.651 7.19683 49.9866 7.25071C50.7972 7.41237 51.6184 7.6333 52.4561 8.02127L52.2456 10.042L51.5049 10.0366C50.6888 9.54084 49.8296 9.44384 48.9324 9.44384C48.4243 9.44384 47.9487 9.54622 47.5111 9.7456C47.073 9.95036 46.6839 10.2575 46.3544 10.6724C46.0248 11.082 45.7653 11.61 45.5815 12.2405C45.3978 12.8709 45.3004 13.6199 45.295 14.4713C45.3004 15.5436 45.4518 16.4435 45.7436 17.171C46.0408 17.9038 46.4569 18.4535 46.9975 18.8253C47.5436 19.2025 48.1812 19.3857 48.9214 19.3911C49.7916 19.3749 50.6297 19.2025 51.4294 18.8414L52.1645 18.8253L52.3916 20.8729C51.1213 21.5465 49.516 21.762 48.5378 21.7189ZM89.6352 19.2779V6.27539L92.1432 7.46087V18.9761C92.1487 19.6497 92.4297 19.8868 92.8999 19.8976V21.7027C90.6569 22.0638 89.6352 21.0992 89.6352 19.2779ZM106.844 21.568C106.504 21.3956 106.233 21.1747 106.039 20.8891C105.844 20.6142 105.703 20.3125 105.617 19.9892C105.525 19.6659 105.471 19.3587 105.449 19.0516C105.428 18.7444 105.417 18.4858 105.422 18.2595L105.417 13.426H104.288V11.5454H105.417L105.422 8.06438L107.882 9.38996V11.54H109.573V13.4745H107.882V18.3672C107.882 19.057 107.979 19.3479 108.157 19.6174C108.341 19.8814 108.93 20.0969 109.573 19.9245V21.6435C109.444 21.7027 109.298 21.7405 109.146 21.7674C108.86 21.8051 108.53 21.8267 108.163 21.8267C107.633 21.8267 107.195 21.7351 106.844 21.568ZM77.2262 21.568C76.8856 21.3956 76.6155 21.1747 76.421 20.8891C76.2264 20.6142 76.0859 20.3125 75.9994 19.9892C75.9074 19.6659 75.8534 19.3587 75.8319 19.0516C75.8099 18.7444 75.7994 18.4858 75.8049 18.2595L75.7994 13.426H74.6696V11.5454H75.7994L75.8099 8.05899L78.2694 9.38457V11.5346H79.9607V13.4691H78.2694V18.3618C78.2694 19.0516 78.3664 19.3426 78.5449 19.612C78.7285 19.876 79.3176 20.0916 79.9607 19.9191V21.6381C79.8312 21.6973 79.6852 21.7351 79.5341 21.762C79.2476 21.7997 78.918 21.8213 78.5504 21.8213C78.0153 21.8267 77.5772 21.7351 77.2262 21.568ZM57.8717 20.6466L57.8392 20.6735C57.5852 21.0723 56.888 21.7081 55.5372 21.7081C55.0021 21.7027 54.548 21.5626 54.1589 21.2986C53.7749 21.0292 53.4778 20.6681 53.2672 20.2209C53.0617 19.7682 52.9537 19.2725 52.9537 18.7283C52.9537 18.0924 53.0722 17.532 53.2993 17.0686C53.5318 16.5944 53.8509 16.2064 54.2775 15.8993C54.694 15.5868 55.1912 15.3551 55.7638 15.2096C56.3369 15.0587 56.969 14.9832 57.6502 14.9832C57.6557 14.6545 57.6126 14.3582 57.5312 14.0941C57.4446 13.8409 57.2881 13.6307 57.0611 13.4798C56.8395 13.329 56.5154 13.2481 56.1044 13.2481C55.7047 13.2481 55.3262 13.3128 54.9641 13.4367C54.5965 13.5607 54.2725 13.7223 53.9914 13.9217L53.5588 12.2028C53.7479 12.0734 53.9914 11.9441 54.283 11.8094C54.5805 11.6855 54.9156 11.5777 55.2937 11.4915C55.6777 11.4053 56.0883 11.3675 56.5369 11.3622C57.2071 11.3675 57.7532 11.4807 58.1963 11.7016C58.6394 11.9226 58.9854 12.2297 59.239 12.6177C59.4985 13.0057 59.6771 13.4475 59.7851 13.9379C59.8931 14.4336 59.9416 14.9563 59.9416 15.5059V19.0085C59.9416 19.4503 60.1852 19.9191 60.8228 19.9568V21.8051C59.439 22.15 58.4393 21.7889 57.8717 20.6466ZM64.3465 24.6772L61.9306 23.5456V14.8C61.9306 14.1642 61.9255 13.5768 61.909 13.038C61.8985 12.5045 61.9306 11.8471 61.909 11.3945H63.7739C63.8819 11.61 63.963 11.8363 64.0115 12.0627C64.6766 11.5561 65.4818 11.2975 66.4384 11.3083C67.4272 11.3083 68.0708 11.5615 68.5894 11.9872C69.108 12.4021 69.5136 12.9895 69.8107 13.7493C70.1082 14.5091 70.2593 15.3928 70.2647 16.4166C70.2593 17.3272 70.1512 18.114 69.9407 18.7768C69.7296 19.4396 69.4436 19.9784 69.092 20.4095C68.7354 20.8352 68.3353 21.1531 67.8977 21.3579C67.4597 21.5626 67.0006 21.665 66.5355 21.665C65.6873 21.692 64.9466 21.471 64.3465 20.9753V24.6772Z" fill="#8EA652"/>
<path d="M45.4726 27.7645C45.4726 28.2118 45.3644 28.5728 45.1482 28.8476C44.9321 29.1224 44.6348 29.2572 44.2619 29.2572C44.0673 29.2572 43.8998 29.2248 43.7593 29.1602C43.6133 29.0955 43.489 28.9985 43.3917 28.8692V30.3887H42.8242V26.0941H43.2566L43.3485 26.4928C43.4512 26.342 43.5755 26.2288 43.7268 26.1534C43.8781 26.0725 44.0565 26.0348 44.2565 26.0348C44.6402 26.0348 44.9429 26.1857 45.1536 26.4928C45.3698 26.8 45.4726 27.2041 45.4726 27.7053V27.7645ZM44.905 27.7053C44.905 27.355 44.8348 27.064 44.6942 26.8377C44.5537 26.6114 44.3484 26.4982 44.0781 26.4982C43.916 26.4982 43.7755 26.536 43.662 26.6114C43.5485 26.6868 43.4512 26.7838 43.3809 26.9132V28.4112C43.4512 28.5405 43.5431 28.6375 43.662 28.7129C43.7755 28.783 43.916 28.8207 44.0835 28.8207C44.3538 28.8207 44.5537 28.7237 44.6942 28.5297C44.8348 28.3303 44.8996 28.0825 44.8996 27.7699V27.7053H44.905ZM48.0778 29.1979C48.0613 29.1063 48.0453 29.0201 48.0343 28.95C48.0233 28.88 48.0183 28.8045 48.0183 28.7345C47.9103 28.8854 47.7748 29.0093 47.6073 29.1117C47.4397 29.2141 47.2562 29.2625 47.0616 29.2625C46.7371 29.2625 46.4885 29.1817 46.321 29.0147C46.1535 28.8476 46.0669 28.6213 46.0669 28.3303C46.0669 28.034 46.186 27.8023 46.429 27.6352C46.6725 27.4682 46.9966 27.382 47.4072 27.382H48.0233V27.0748C48.0233 26.8916 47.9693 26.7515 47.8558 26.6437C47.7427 26.536 47.5857 26.4821 47.3857 26.4821C47.2021 26.4821 47.0561 26.5306 46.9426 26.6222C46.8291 26.7138 46.7696 26.8269 46.7696 26.9563H46.229L46.2239 26.9401C46.213 26.7138 46.321 26.509 46.5425 26.3204C46.7696 26.1318 47.0616 26.0402 47.4182 26.0402C47.7698 26.0402 48.0558 26.1318 48.2669 26.3096C48.4829 26.4875 48.591 26.7461 48.591 27.0856V28.5782C48.591 28.6914 48.5964 28.7937 48.6074 28.9015C48.618 29.0039 48.6399 29.1063 48.672 29.2033H48.0778V29.1979ZM47.1372 28.7884C47.3427 28.7884 47.5262 28.7345 47.6938 28.6321C47.8613 28.5243 47.9643 28.4058 48.0183 28.2711V27.7645H47.3802C47.1536 27.7645 46.9696 27.8238 46.8346 27.937C46.6995 28.0501 46.6291 28.1848 46.6291 28.3411C46.6291 28.4812 46.6725 28.589 46.7591 28.6698C46.8456 28.7453 46.9696 28.7884 47.1372 28.7884ZM50.3583 28.0501L50.4613 28.4381H50.4773L51.245 26.0941H51.8771L50.5693 29.6721C50.4883 29.8822 50.3798 30.06 50.2288 30.2163C50.0828 30.3726 49.8827 30.448 49.6342 30.448C49.5911 30.448 49.5316 30.4426 49.4611 30.4319C49.3911 30.4211 49.3371 30.4103 49.2991 30.3995L49.3586 29.9577C49.3476 29.9577 49.3801 29.9577 49.4611 29.9631C49.5422 29.9684 49.5911 29.9738 49.6126 29.9738C49.7317 29.9738 49.8342 29.9199 49.9097 29.8122C49.9857 29.7044 50.0502 29.5859 50.1043 29.4565L50.2393 29.1332L49.083 26.0941H49.7152L50.3583 28.0501ZM52.8768 26.0941L52.9148 26.5036C53.0174 26.3581 53.1474 26.2396 53.3039 26.1588C53.4609 26.0779 53.639 26.0348 53.85 26.0348C54.0551 26.0348 54.2336 26.0833 54.3851 26.1803C54.5362 26.2773 54.6442 26.4228 54.7202 26.6114C54.8172 26.4336 54.9472 26.2989 55.1093 26.1911C55.2713 26.0887 55.4604 26.0348 55.6714 26.0348C55.99 26.0348 56.2385 26.1426 56.4225 26.3581C56.6061 26.5737 56.6981 26.9024 56.6981 27.3388V29.1925H56.1305V27.3335C56.1305 27.0263 56.0765 26.8108 55.9739 26.6868C55.8659 26.5575 55.7089 26.4982 55.5038 26.4982C55.3093 26.4982 55.1523 26.5629 55.0333 26.6976C54.9147 26.8323 54.8442 26.9994 54.8227 27.2041V27.2257V29.1979H54.2551V27.3388C54.2551 27.0479 54.2011 26.8377 54.0931 26.703C53.985 26.5683 53.828 26.4982 53.623 26.4982C53.4499 26.4982 53.3094 26.536 53.1959 26.606C53.0824 26.6761 53.0013 26.7784 52.9418 26.9024V29.1979H52.3742V26.0941H52.8768ZM58.8115 29.2572C58.3789 29.2572 58.0329 29.1117 57.7793 28.8261C57.5252 28.5405 57.3953 28.1633 57.3953 27.7053V27.5813C57.3953 27.1395 57.5253 26.773 57.7898 26.4767C58.0549 26.1803 58.3629 26.0348 58.725 26.0348C59.1466 26.0348 59.4601 26.1588 59.6762 26.412C59.8923 26.6653 60.0003 26.9994 60.0003 27.4197V27.7699H57.9844L57.9738 27.7861C57.9789 28.0825 58.0549 28.3303 58.2004 28.5189C58.3464 28.7129 58.552 28.8099 58.8115 28.8099C59.0061 28.8099 59.1736 28.783 59.3196 28.7291C59.4652 28.6752 59.5897 28.5998 59.6922 28.5028L59.9138 28.8692C59.8003 28.977 59.6547 29.0686 59.4762 29.144C59.2871 29.2248 59.0656 29.2572 58.8115 29.2572ZM58.725 26.4821C58.536 26.4821 58.3735 26.5629 58.2384 26.7246C58.1034 26.8862 58.0224 27.0856 57.9899 27.3281L57.9954 27.3442H59.4331V27.2688C59.4331 27.0479 59.3736 26.8593 59.2546 26.7138C59.1301 26.5575 58.9575 26.4821 58.725 26.4821ZM61.141 26.0941L61.1785 26.5575C61.2815 26.3905 61.4111 26.2665 61.5676 26.1749C61.7246 26.0833 61.9027 26.0402 62.1027 26.0402C62.4378 26.0402 62.6973 26.1372 62.8813 26.3312C63.0649 26.5306 63.1569 26.8323 63.1569 27.2419V29.1979H62.5893V27.2526C62.5893 26.9778 62.5353 26.7838 62.4273 26.6707C62.3192 26.5575 62.1517 26.4982 61.9297 26.4982C61.7676 26.4982 61.6216 26.536 61.4976 26.6168C61.3731 26.6976 61.2705 26.8054 61.195 26.9401V29.2033H60.6274V26.0995H61.141V26.0941ZM64.7297 25.3451V26.0941H65.3188V26.5144H64.7297V28.4004C64.7297 28.5459 64.7567 28.6483 64.8213 28.7075C64.8808 28.7668 64.9618 28.7991 65.0648 28.7991C65.0973 28.7991 65.1348 28.7937 65.1728 28.7884C65.2104 28.783 65.2484 28.7722 65.2754 28.7614L65.3509 29.1494C65.3079 29.1817 65.2483 29.2141 65.1673 29.2356C65.0863 29.2572 65.0053 29.2679 64.9188 29.2679C64.6862 29.2679 64.5082 29.1979 64.3676 29.0578C64.2322 28.9177 64.1621 28.7021 64.1621 28.4058V26.5198H63.665V26.0995H64.1621V25.3505H64.7297V25.3451ZM68.702 28.3734C68.702 28.2495 68.6535 28.1471 68.5615 28.0663C68.464 27.9855 68.286 27.9154 68.0209 27.8561C67.6428 27.7753 67.3618 27.6622 67.1672 27.5221C66.9777 27.382 66.8807 27.188 66.8807 26.9455C66.8807 26.6922 66.9887 26.4767 67.2048 26.2989C67.4213 26.121 67.7023 26.0294 68.0424 26.0294C68.405 26.0294 68.6911 26.121 68.9076 26.3096C69.1236 26.4982 69.2207 26.7192 69.2156 26.9886L69.2101 27.0048H68.6695C68.6695 26.87 68.61 26.7461 68.4965 26.6383C68.383 26.5306 68.2319 26.4767 68.0424 26.4767C67.8429 26.4767 67.6913 26.5198 67.5938 26.6114C67.4968 26.6976 67.4483 26.8054 67.4483 26.9293C67.4483 27.0533 67.4913 27.1502 67.5778 27.2203C67.6643 27.2903 67.8429 27.355 68.1019 27.4089C68.4965 27.4951 68.7886 27.6083 68.9776 27.7538C69.1667 27.8993 69.2642 28.0932 69.2642 28.3357C69.2642 28.6105 69.1506 28.8315 68.9291 29.0039C68.7075 29.1763 68.4155 29.2572 68.0534 29.2572C67.6588 29.2572 67.3453 29.1548 67.1182 28.9554C66.8917 28.756 66.7832 28.5189 66.7942 28.2549L66.7997 28.2387H67.3403C67.3508 28.4381 67.4263 28.5836 67.5618 28.6806C67.7023 28.7722 67.8644 28.8207 68.0534 28.8207C68.2535 28.8207 68.41 28.7776 68.529 28.6968C68.648 28.6159 68.702 28.5082 68.702 28.3734ZM70.929 28.0501L71.0315 28.4381H71.0475L71.8152 26.0941H72.4473L71.1395 29.6721C71.0585 29.8822 70.9505 30.06 70.799 30.2163C70.653 30.3726 70.4529 30.448 70.2044 30.448C70.1613 30.448 70.1018 30.4426 70.0318 30.4319C69.9613 30.4211 69.9073 30.4103 69.8693 30.3995L69.9288 29.9577C69.9183 29.9577 69.9503 29.9577 70.0318 29.9631C70.1128 29.9684 70.1613 29.9738 70.1829 29.9738C70.3019 29.9738 70.4044 29.9199 70.4804 29.8122C70.5559 29.7044 70.6209 29.5859 70.6749 29.4565L70.81 29.1332L69.6532 26.0941H70.2854L70.929 28.0501ZM74.7498 28.3734C74.7498 28.2495 74.7013 28.1471 74.6093 28.0663C74.5122 27.9855 74.3337 27.9154 74.0691 27.8561C73.6906 27.7753 73.4095 27.6622 73.215 27.5221C73.0259 27.382 72.9284 27.188 72.9284 26.9455C72.9284 26.6922 73.0364 26.4767 73.253 26.2989C73.469 26.121 73.7501 26.0294 74.0906 26.0294C74.4527 26.0294 74.7393 26.121 74.9553 26.3096C75.1714 26.4982 75.2689 26.7192 75.2634 26.9886L75.2579 27.0048H74.7173C74.7173 26.87 74.6582 26.7461 74.5447 26.6383C74.4312 26.5306 74.2797 26.4767 74.0906 26.4767C73.8906 26.4767 73.7391 26.5198 73.642 26.6114C73.5445 26.6976 73.496 26.8054 73.496 26.9293C73.496 27.0533 73.539 27.1502 73.6256 27.2203C73.7121 27.2903 73.8906 27.355 74.1501 27.4089C74.5447 27.4951 74.8363 27.6083 75.0254 27.7538C75.2149 27.8993 75.3119 28.0932 75.3119 28.3357C75.3119 28.6105 75.1984 28.8315 74.9768 29.0039C74.7553 29.1763 74.4632 29.2572 74.1012 29.2572C73.7066 29.2572 73.3935 29.1548 73.1664 28.9554C72.9394 28.756 72.8314 28.5189 72.8419 28.2549L72.8474 28.2387H73.388C73.3985 28.4381 73.4745 28.5836 73.6095 28.6806C73.7501 28.7722 73.9121 28.8207 74.1012 28.8207C74.3012 28.8207 74.4582 28.7776 74.5768 28.6968C74.6903 28.6159 74.7498 28.5082 74.7498 28.3734ZM76.7657 25.3451V26.0941H77.3548V26.5144H76.7657V28.4004C76.7657 28.5459 76.7927 28.6483 76.8577 28.7075C76.9172 28.7668 76.9982 28.7991 77.1008 28.7991C77.1333 28.7991 77.1713 28.7937 77.2093 28.7884C77.2468 28.783 77.2848 28.7722 77.3118 28.7614L77.3873 29.1494C77.3443 29.1817 77.2848 29.2141 77.2038 29.2356C77.1227 29.2572 77.0417 29.2679 76.9552 29.2679C76.7227 29.2679 76.5442 29.1979 76.4036 29.0578C76.2686 28.9177 76.1986 28.7021 76.1986 28.4058V26.5198H75.701V26.0995H76.1986V25.3505H76.7657V25.3451ZM79.3437 29.2572C78.9116 29.2572 78.5656 29.1117 78.3115 28.8261C78.0575 28.5405 77.9279 28.1633 77.9279 27.7053V27.5813C77.9279 27.1395 78.0575 26.773 78.3225 26.4767C78.5871 26.1803 78.8951 26.0348 79.2572 26.0348C79.6788 26.0348 79.9924 26.1588 80.2089 26.412C80.4249 26.6653 80.533 26.9994 80.533 27.4197V27.7699H78.517L78.5061 27.7861C78.5116 28.0825 78.5871 28.3303 78.7331 28.5189C78.8791 28.7129 79.0847 28.8099 79.3437 28.8099C79.5383 28.8099 79.7058 28.783 79.8518 28.7291C79.9979 28.6752 80.1224 28.5998 80.2249 28.5028L80.4464 28.8692C80.3329 28.977 80.1869 29.0686 80.0088 29.144C79.8248 29.2248 79.6033 29.2572 79.3437 29.2572ZM79.2572 26.4821C79.0682 26.4821 78.9061 26.5629 78.7711 26.7246C78.6361 26.8862 78.555 27.0856 78.5225 27.3281L78.5276 27.3442H79.9654V27.2688C79.9654 27.0479 79.9058 26.8593 79.7873 26.7138C79.6683 26.5575 79.4953 26.4821 79.2572 26.4821ZM81.6787 26.0941L81.7167 26.5036C81.8192 26.3581 81.9488 26.2396 82.1058 26.1588C82.2623 26.0779 82.4408 26.0348 82.6514 26.0348C82.8569 26.0348 83.0355 26.0833 83.1865 26.1803C83.338 26.2773 83.4461 26.4228 83.5216 26.6114C83.6191 26.4336 83.7486 26.2989 83.9107 26.1911C84.0732 26.0887 84.2622 26.0348 84.4728 26.0348C84.7918 26.0348 85.0404 26.1426 85.2244 26.3581C85.408 26.5737 85.5 26.9024 85.5 27.3388V29.1925H84.9324V27.3335C84.9324 27.0263 84.8783 26.8108 84.7758 26.6868C84.6673 26.5575 84.5108 26.4982 84.3053 26.4982C84.1107 26.4982 83.9542 26.5629 83.8351 26.6976C83.7161 26.8323 83.6461 26.9994 83.6246 27.2041V27.2257V29.1979H83.057V27.3388C83.057 27.0479 83.003 26.8377 82.8949 26.703C82.7869 26.5683 82.6299 26.4982 82.4244 26.4982C82.2518 26.4982 82.1113 26.536 81.9977 26.606C81.8842 26.6761 81.8032 26.7784 81.7437 26.9024V29.1979H81.1761V26.0941H81.6787Z" fill="white"/>
</svg>
